# xmcd
#
# Track frame offsets:
#	150
#	16420
#	31343
#	47448
#	61041
#	73616
#	91157
#	106482
#	121907
#	137435
#	154710
#	170230
#	181967
#	199682
#	215755
#	237854
#	249632
#	268627
#	282459
#	300322
#	315910
#
# Disc length: 4373 seconds
#
# Revision: 0
# Processed by: cddbd v1.5.2PL0 Copyright (c) Steve Scherf et al.
# Submitted via: EasyCDDAExtractor 16.0.6.1
#
DISCID=1d111315
DTITLE=Καζαντζίδης Στέλιος - Στέλιος Καζαντζίδης-EMI 05
DYEAR=1900
DGENRE=Λαϊκή
TTITLE0=Καζαντζίδης Στέλιος - Παίξε Χρήστο το μπουζούκι [Βασ. Τσιτσάνη]
TTITLE1=Καζαντζίδης Στέλιος - Καθένας με τον πόνο του [Χρ. Κολοκοτρώνη-Θ. Δερβ
TTITLE1=ενιώτη]
TTITLE2=Καζαντζίδης Στέλιος - Στο άδειο προσκεφάλι [Χρ. Κολοκοτρώνη-Μπ. Δαλιάν
TTITLE2=η]
TTITLE3=Καζαντζίδης Στέλιος - Προσευχή [Σπ. Ζαγοραίου]
TTITLE4=Καζαντζίδης Στέλιος - Ποιος σού 'πε δεν σ' αγαπώ [Απ. Καλδάρα]
TTITLE5=Καζαντζίδης Στέλιος - Υπάρχουν και καλά παιδιά [Χρ. Κολοκοτρώνη]
TTITLE6=Καζαντζίδης Στέλιος - Θα το πω φανερά [Στ. Καζαντζίδη]
TTITLE7=Καζαντζίδης Στέλιος - Ήρθες τα γλυκοχαράματα [Χρ. Κολοκοτρώνη]
TTITLE8=Καζαντζίδης Στέλιος - Την έδιωξα κι όμως την αγαπώ [Εμμ. Χιώτη-Χρ. Κολ
TTITLE8=οκοτρώνη]
TTITLE9=Καζαντζίδης Στέλιος - Βράχο βράχο τον καημό μου [Μ. Θεοδωράκη-Δ. Χριστ
TTITLE9=οδούλου]
TTITLE10=Καζαντζίδης Στέλιος - Το πέλαγος είναι βαθύ [Μ. Χατζιδάκι]
TTITLE11=Καζαντζίδης Στέλιος - Στα χέρια σου μεγάλωσα [Στ. Ξαρχάκου-Λ. Παπαδόπ
TTITLE11=ουλου]
TTITLE12=Καζαντζίδης Στέλιος - Είναι μεγάλος ο καημός [Μ. Θεοδωράκη-Δ. Χριστοδ
TTITLE12=ούλου]
TTITLE13=Καζαντζίδης Στέλιος - Κουρασμένο παλληκάρι [Μ. Χατζιδάκι-Ν. Γκάτσου]
TTITLE14=Καζαντζίδης Στέλιος - Το Σαββατόβραδο [Μ. Θεοδωράκη-Τ. Λειβαδίτη]
TTITLE15=Καζαντζίδης Στέλιος-Μαρινέλλα - Ο κυρ Αντώνης [Μ. Χατζιδάκι]
TTITLE16=Καζαντζίδης Στέλιος - Τι θέλεις απ' τα νειάτα μου [Μ. Θεοδωράκη-Δ. Χρ
TTITLE16=ιστοδούλου]
TTITLE17=Καζαντζίδης Στέλιος - Άπονη ζωή [Στ. Ξαρχάκου-Λ. Παπαδόπουλου]
TTITLE18=Καζαντζίδης Στέλιος - Ο μετανάστης [Μ. Θεοδωράκη-Δ. Χριστοδούλου]
TTITLE19=Καζαντζίδης Στέλιος-Μαρινέλλα - Έχω μιά αγάπη [Μ. Θεοδωράκη-Τ. Λειβαδ
TTITLE19=ίτη]
TTITLE20=Καζαντζίδης Στέλιος-Μαρινέλλα - Αθήνα [Μ. Χατζιδάκι-Ν. Γκάτσου]
EXTD=
EXTT0=
EXTT1=
EXTT2=
EXTT3=
EXTT4=
EXTT5=
EXTT6=
EXTT7=
EXTT8=
EXTT9=
EXTT10=
EXTT11=
EXTT12=
EXTT13=
EXTT14=
EXTT15=
EXTT16=
EXTT17=
EXTT18=
EXTT19=
EXTT20=
PLAYORDER=
